<svg width="26" height="26" viewBox="0 0 26 26" fill="none" xmlns="http://www.w3.org/2000/svg">
<path d="M13 2.06006C12.6641 2.07927 12.344 2.2094 12.09 2.43006L2.66 10.0001C2.4561 10.1615 2.29097 10.3665 2.17675 10.6001C2.06254 10.8338 2.00214 11.09 2 11.3501V22.1801C2 22.6468 2.18543 23.0945 2.51549 23.4246C2.84556 23.7546 3.29322 23.9401 3.76 23.9401H7.34C7.57197 23.9414 7.80191 23.8968 8.01659 23.809C8.23128 23.7211 8.42648 23.5917 8.59098 23.4281C8.75547 23.2646 8.88601 23.0701 8.97508 22.8559C9.06415 22.6417 9.11 22.412 9.11 22.1801V19.9201C9.11 19.4533 9.29543 19.0056 9.62549 18.6755C9.95556 18.3455 10.4032 18.1601 10.87 18.1601H15.13C15.3611 18.1601 15.59 18.2056 15.8035 18.294C16.0171 18.3825 16.2111 18.5121 16.3745 18.6755C16.5379 18.839 16.6676 19.033 16.756 19.2465C16.8445 19.4601 16.89 19.6889 16.89 19.9201V22.1801C16.89 22.412 16.9358 22.6417 17.0249 22.8559C17.114 23.0701 17.2445 23.2646 17.409 23.4281C17.5735 23.5917 17.7687 23.7211 17.9834 23.809C18.1981 23.8968 18.428 23.9414 18.66 23.9401H22.24C22.7068 23.9401 23.1544 23.7546 23.4845 23.4246C23.8146 23.0945 24 22.6468 24 22.1801V11.3501C23.9979 11.09 23.9375 10.8338 23.8232 10.6001C23.709 10.3665 23.5439 10.1615 23.34 10.0001L13.91 2.45006C13.6567 2.22532 13.3375 2.08851 13 2.06006V2.06006Z" stroke="#0066FF" stroke-width="3" stroke-linecap="round" stroke-linejoin="round"/>
</svg>
