<svg width="26" height="28" viewBox="0 0 26 28" fill="none" xmlns="http://www.w3.org/2000/svg">
<rect width="26" height="28" fill="#E5E5E5"/>
<g clip-path="url(#clip0_0:1)">
<rect width="375" height="1378" transform="translate(-283 -1329)" fill="#F5F5F5"/>
<g filter="url(#filter0_d_0:1)">
<rect x="-283" y="-21" width="375" height="70" fill="white"/>
</g>
<path d="M12.988 17.9329C12.0979 17.9286 11.2326 17.6395 10.5187 17.1079C9.80475 16.5764 9.2797 15.8303 9.02037 14.9788C8.76104 14.1274 8.78104 13.2153 9.07746 12.376C9.37387 11.5367 9.93112 10.8144 10.6677 10.3146C11.4042 9.81491 12.2814 9.56404 13.1708 9.59875C14.0602 9.63347 14.9151 9.95194 15.6104 10.5076C16.3058 11.0632 16.805 11.8268 17.0351 12.6866C17.2652 13.5464 17.2141 14.4573 16.8892 15.286C16.5909 16.0754 16.056 16.7533 15.3577 17.2271C14.6594 17.7009 13.8317 17.9474 12.988 17.9329V17.9329Z" stroke="#231815" stroke-width="2"/>
<path d="M23.133 11.5416L24.3688 10.5271C24.66 10.331 24.8689 10.0347 24.9557 9.69449C25.0424 9.35432 25.001 8.99412 24.8392 8.68255L23.2898 5.99874C23.1273 5.70549 22.8632 5.48175 22.5473 5.36964C22.2313 5.25753 21.8853 5.26479 21.5743 5.39004L19.8128 6.06329C19.609 6.14232 19.389 6.17019 19.1719 6.14447C18.9548 6.11874 18.7474 6.0402 18.5677 5.91573C18.0599 5.55835 17.5195 5.24956 16.9538 4.99346C16.7519 4.90502 16.5763 4.76605 16.4438 4.58996C16.3114 4.41387 16.2265 4.20661 16.1975 3.98818L15.8839 2.14364C15.8332 1.82354 15.6695 1.5322 15.4225 1.3224C15.1755 1.1126 14.8615 0.998235 14.5374 1.00002H11.4386C11.1145 0.998235 10.8005 1.1126 10.5535 1.3224C10.3064 1.5322 10.1428 1.82354 10.0921 2.14364L9.77848 3.98818C9.7486 4.20632 9.66342 4.4132 9.53106 4.58915C9.39869 4.7651 9.22353 4.90428 9.02222 4.99346C8.45456 5.25153 7.9113 5.5602 7.39902 5.91573C7.22143 6.04091 7.01549 6.11995 6.79975 6.14571C6.584 6.17147 6.36524 6.14314 6.16317 6.06329L4.40163 5.39004C4.09741 5.27666 3.76287 5.27466 3.45731 5.38439C3.15175 5.49412 2.89491 5.7085 2.73232 5.98951L1.1829 8.6641C1.02041 8.94551 0.963652 9.27566 1.02282 9.59518C1.08199 9.9147 1.25322 10.2026 1.5057 10.4072L2.91678 11.56C3.09188 11.7052 3.22821 11.8916 3.31352 12.1025C3.39883 12.3134 3.43047 12.5421 3.40558 12.7682C3.35635 13.3821 3.35635 13.9989 3.40558 14.6128C3.42465 14.8365 3.38932 15.0616 3.3026 15.2688C3.21588 15.4759 3.08034 15.659 2.90755 15.8025L1.5057 16.9461C1.25629 17.153 1.08803 17.4414 1.03065 17.7604C0.973272 18.0794 1.03047 18.4083 1.19213 18.6892L2.74154 21.373C2.90414 21.654 3.16098 21.8684 3.46653 21.9781C3.77209 22.0879 4.10663 22.0859 4.41086 21.9725L6.03405 21.3546C6.23926 21.2747 6.4609 21.2464 6.67957 21.2722C6.89825 21.2979 7.10727 21.3769 7.28835 21.5021C7.84031 21.9082 8.43391 22.2545 9.05911 22.5351C9.26105 22.6296 9.43655 22.7725 9.57008 22.9511C9.7036 23.1296 9.79102 23.3384 9.82459 23.5588L10.1013 25.2558C10.152 25.5759 10.3157 25.8672 10.5627 26.077C10.8097 26.2868 11.1237 26.4012 11.4478 26.3994H14.5466C14.8707 26.4012 15.1847 26.2868 15.4317 26.077C15.6787 25.8672 15.8424 25.5759 15.8931 25.2558L16.1698 23.5588C16.2043 23.3375 16.2919 23.1279 16.4253 22.948C16.5586 22.7681 16.7336 22.6232 16.9353 22.5259C17.561 22.25 18.1548 21.9067 18.7061 21.5021C18.8861 21.3746 19.0953 21.2942 19.3144 21.2684C19.5335 21.2427 19.7556 21.2723 19.9604 21.3546L21.5836 21.9725C21.8878 22.0859 22.2223 22.0879 22.5279 21.9781C22.8334 21.8684 23.0903 21.654 23.2529 21.373L24.8023 18.6892C24.9648 18.4078 25.0215 18.0776 24.9624 17.7581C24.9032 17.4386 24.732 17.1507 24.4795 16.9461L23.133 15.8394C22.946 15.698 22.7986 15.511 22.7049 15.2961C22.6112 15.0813 22.5744 14.8459 22.5981 14.6128C22.6666 13.9998 22.6666 13.3812 22.5981 12.7682C22.5744 12.535 22.6112 12.2997 22.7049 12.0849C22.7986 11.87 22.946 11.6829 23.133 11.5416V11.5416Z" stroke="#231815" stroke-width="2" stroke-linecap="round" stroke-linejoin="round"/>
</g>
<defs>
<filter id="filter0_d_0:1" x="-303" y="-45" width="415" height="110" filterUnits="userSpaceOnUse" color-interpolation-filters="sRGB">
<feFlood flood-opacity="0" result="BackgroundImageFix"/>
<feColorMatrix in="SourceAlpha" type="matrix" values="0 0 0 0 0 0 0 0 0 0 0 0 0 0 0 0 0 0 127 0" result="hardAlpha"/>
<feOffset dy="-4"/>
<feGaussianBlur stdDeviation="10"/>
<feColorMatrix type="matrix" values="0 0 0 0 0 0 0 0 0 0 0 0 0 0 0 0 0 0 0.04 0"/>
<feBlend mode="normal" in2="BackgroundImageFix" result="effect1_dropShadow_0:1"/>
<feBlend mode="normal" in="SourceGraphic" in2="effect1_dropShadow_0:1" result="shape"/>
</filter>
<clipPath id="clip0_0:1">
<rect width="375" height="1378" fill="white" transform="translate(-283 -1329)"/>
</clipPath>
</defs>
</svg>
